<svg width="815" height="238" viewBox="0 0 815 238" fill="none" xmlns="http://www.w3.org/2000/svg">
<path d="M0.546875 0H78.3125V193.5H127.953V216H0.546875V193.5H52.2969V22.6406H0.546875V0ZM169.438 216V63.8438H192.781L194.609 86.3438C196.859 83.1562 199.297 80.25 201.922 77.625C204.641 74.9062 207.5 72.5625 210.5 70.5938C215 67.5938 219.875 65.2969 225.125 63.7031C230.469 62.0156 236.094 61.125 242 61.0312C249.969 61.0312 257.188 62.1562 263.656 64.4062C270.219 66.6562 275.797 70.1719 280.391 74.9531C284.984 79.7344 288.5 85.8281 290.938 93.2344C293.469 100.547 294.734 109.266 294.734 119.391V216H268.719V119.953C268.719 113.203 267.969 107.484 266.469 102.797C264.969 98.1094 262.766 94.3125 259.859 91.4062C256.859 88.5 253.203 86.3906 248.891 85.0781C244.672 83.7656 239.797 83.1094 234.266 83.1094C229.484 83.1094 225.031 83.8125 220.906 85.2188C216.781 86.5312 212.984 88.3594 209.516 90.7031C206.703 92.7656 204.078 95.1562 201.641 97.875C199.297 100.594 197.234 103.594 195.453 106.875V216H169.438ZM407.234 197.719C411.922 197.719 416.469 196.969 420.875 195.469C425.375 193.969 429.359 191.859 432.828 189.141C436.297 186.516 439.062 183.422 441.125 179.859C443.281 176.203 444.406 172.266 444.5 168.047H469.109C469.016 174.797 467.234 181.266 463.766 187.453C460.391 193.547 455.844 198.891 450.125 203.484C444.406 208.172 437.844 211.922 430.438 214.734C423.031 217.453 415.297 218.812 407.234 218.812C395.703 218.812 385.625 216.75 377 212.625C368.375 208.5 361.203 202.922 355.484 195.891C349.672 188.953 345.312 180.938 342.406 171.844C339.5 162.656 338.047 153 338.047 142.875V136.969C338.047 126.938 339.5 117.328 342.406 108.141C345.312 98.9531 349.672 90.8438 355.484 83.8125C361.203 76.875 368.375 71.3438 377 67.2188C385.625 63.0938 395.703 61.0312 407.234 61.0312C416.234 61.0312 424.484 62.4844 431.984 65.3906C439.578 68.2031 446.141 72.0469 451.672 76.9219C457.109 81.8906 461.375 87.75 464.469 94.5C467.562 101.25 469.109 108.469 469.109 116.156H444.5C444.406 111.562 443.375 107.25 441.406 103.219C439.531 99.0938 436.953 95.4844 433.672 92.3906C430.391 89.2969 426.453 86.8594 421.859 85.0781C417.359 83.2969 412.484 82.4062 407.234 82.4062C399.172 82.4062 392.375 84.0469 386.844 87.3281C381.406 90.5156 377 94.6875 373.625 99.8438C370.25 105.094 367.812 110.953 366.312 117.422C364.906 123.891 364.203 130.406 364.203 136.969V142.875C364.203 149.531 364.906 156.141 366.312 162.703C367.812 169.172 370.25 174.984 373.625 180.141C376.906 185.391 381.266 189.656 386.703 192.938C392.234 196.125 399.078 197.719 407.234 197.719ZM560.938 144.984L541.812 163.406V216H515.656V0H541.812V132.188L558.828 113.906L608.75 63.8438H640.391L578.797 127.266L649.812 216H616.766L560.938 144.984ZM814.625 237.234H685.672V216H814.625V237.234Z" fill="black"/>
</svg>
